<mxfile host="app.diagrams.net" agent="Mozilla/5.0 (Windows NT 10.0; Win64; x64) AppleWebKit/537.36 (KHTML, like Gecko) Chrome/136.0.0.0 Safari/537.36 Edg/136.0.0.0" version="27.0.9">
  <diagram name="Page-1" id="JIJUU-_U0LN4lLKcb38Y">
    <mxGraphModel dx="1773" dy="940" grid="1" gridSize="10" guides="1" tooltips="1" connect="1" arrows="1" fold="1" page="1" pageScale="1" pageWidth="850" pageHeight="1100" math="0" shadow="0">
      <root>
        <mxCell id="0" />
        <mxCell id="1" parent="0" />
        <mxCell id="wUvt39ZvLq313ZMalpjT-1243" value="User" style="shape=umlActor;verticalLabelPosition=bottom;verticalAlign=top;html=1;outlineConnect=0;" vertex="1" parent="1">
          <mxGeometry x="170" y="130" width="30" height="60" as="geometry" />
        </mxCell>
        <mxCell id="wUvt39ZvLq313ZMalpjT-1244" value="" style="rounded=1;whiteSpace=wrap;html=1;" vertex="1" parent="1">
          <mxGeometry x="450" y="130" width="120" height="60" as="geometry" />
        </mxCell>
        <mxCell id="wUvt39ZvLq313ZMalpjT-1245" value="" style="rounded=1;whiteSpace=wrap;html=1;" vertex="1" parent="1">
          <mxGeometry x="780" y="130" width="120" height="60" as="geometry" />
        </mxCell>
        <mxCell id="wUvt39ZvLq313ZMalpjT-1246" value="" style="endArrow=none;dashed=1;html=1;rounded=0;" edge="1" parent="1" source="wUvt39ZvLq313ZMalpjT-1259" target="wUvt39ZvLq313ZMalpjT-1244">
          <mxGeometry width="50" height="50" relative="1" as="geometry">
            <mxPoint x="510" y="570" as="sourcePoint" />
            <mxPoint x="460" y="240" as="targetPoint" />
          </mxGeometry>
        </mxCell>
        <mxCell id="wUvt39ZvLq313ZMalpjT-1247" value="" style="endArrow=none;dashed=1;html=1;rounded=0;" edge="1" parent="1" source="wUvt39ZvLq313ZMalpjT-1261">
          <mxGeometry width="50" height="50" relative="1" as="geometry">
            <mxPoint x="840" y="570" as="sourcePoint" />
            <mxPoint x="840" y="190" as="targetPoint" />
          </mxGeometry>
        </mxCell>
        <mxCell id="wUvt39ZvLq313ZMalpjT-1248" value="" style="endArrow=none;dashed=1;html=1;rounded=0;" edge="1" parent="1">
          <mxGeometry width="50" height="50" relative="1" as="geometry">
            <mxPoint x="180" y="760" as="sourcePoint" />
            <mxPoint x="184.5" y="190" as="targetPoint" />
          </mxGeometry>
        </mxCell>
        <mxCell id="wUvt39ZvLq313ZMalpjT-1249" value="Home Page" style="text;html=1;align=center;verticalAlign=middle;whiteSpace=wrap;rounded=0;" vertex="1" parent="1">
          <mxGeometry x="480" y="145" width="60" height="30" as="geometry" />
        </mxCell>
        <mxCell id="wUvt39ZvLq313ZMalpjT-1250" value="Auth API" style="text;html=1;align=center;verticalAlign=middle;whiteSpace=wrap;rounded=0;" vertex="1" parent="1">
          <mxGeometry x="810" y="145" width="60" height="30" as="geometry" />
        </mxCell>
        <mxCell id="wUvt39ZvLq313ZMalpjT-1251" value="" style="endArrow=classic;html=1;rounded=0;" edge="1" parent="1">
          <mxGeometry width="50" height="50" relative="1" as="geometry">
            <mxPoint x="185" y="260" as="sourcePoint" />
            <mxPoint x="505" y="260" as="targetPoint" />
          </mxGeometry>
        </mxCell>
        <mxCell id="wUvt39ZvLq313ZMalpjT-1252" value="" style="endArrow=classic;html=1;rounded=0;" edge="1" parent="1">
          <mxGeometry width="50" height="50" relative="1" as="geometry">
            <mxPoint x="505" y="300" as="sourcePoint" />
            <mxPoint x="835" y="300" as="targetPoint" />
          </mxGeometry>
        </mxCell>
        <mxCell id="wUvt39ZvLq313ZMalpjT-1253" value="" style="endArrow=classic;html=1;rounded=0;" edge="1" parent="1">
          <mxGeometry width="50" height="50" relative="1" as="geometry">
            <mxPoint x="845" y="520" as="sourcePoint" />
            <mxPoint x="515" y="520" as="targetPoint" />
          </mxGeometry>
        </mxCell>
        <mxCell id="wUvt39ZvLq313ZMalpjT-1254" value="" style="endArrow=classic;html=1;rounded=0;" edge="1" parent="1">
          <mxGeometry width="50" height="50" relative="1" as="geometry">
            <mxPoint x="510" y="730" as="sourcePoint" />
            <mxPoint x="180" y="730" as="targetPoint" />
          </mxGeometry>
        </mxCell>
        <mxCell id="wUvt39ZvLq313ZMalpjT-1255" value="Press &quot;Logout&quot; button on NavBar" style="text;html=1;align=center;verticalAlign=middle;whiteSpace=wrap;rounded=0;" vertex="1" parent="1">
          <mxGeometry x="235" y="230" width="215" height="30" as="geometry" />
        </mxCell>
        <mxCell id="wUvt39ZvLq313ZMalpjT-1256" value="Logout user" style="text;html=1;align=center;verticalAlign=middle;whiteSpace=wrap;rounded=0;" vertex="1" parent="1">
          <mxGeometry x="600" y="270" width="170" height="30" as="geometry" />
        </mxCell>
        <mxCell id="wUvt39ZvLq313ZMalpjT-1257" value="Display error message" style="text;html=1;align=center;verticalAlign=middle;whiteSpace=wrap;rounded=0;" vertex="1" parent="1">
          <mxGeometry x="250" y="690" width="170" height="30" as="geometry" />
        </mxCell>
        <mxCell id="wUvt39ZvLq313ZMalpjT-1258" value="" style="endArrow=none;dashed=1;html=1;rounded=0;" edge="1" parent="1" target="wUvt39ZvLq313ZMalpjT-1259">
          <mxGeometry width="50" height="50" relative="1" as="geometry">
            <mxPoint x="510" y="760" as="sourcePoint" />
            <mxPoint x="510" y="190" as="targetPoint" />
          </mxGeometry>
        </mxCell>
        <mxCell id="wUvt39ZvLq313ZMalpjT-1259" value="" style="html=1;points=[[0,0,0,0,5],[0,1,0,0,-5],[1,0,0,0,5],[1,1,0,0,-5]];perimeter=orthogonalPerimeter;outlineConnect=0;targetShapes=umlLifeline;portConstraint=eastwest;newEdgeStyle={&quot;curved&quot;:0,&quot;rounded&quot;:0};" vertex="1" parent="1">
          <mxGeometry x="505" y="240" width="10" height="90" as="geometry" />
        </mxCell>
        <mxCell id="wUvt39ZvLq313ZMalpjT-1260" value="" style="endArrow=none;dashed=1;html=1;rounded=0;" edge="1" parent="1" target="wUvt39ZvLq313ZMalpjT-1261">
          <mxGeometry width="50" height="50" relative="1" as="geometry">
            <mxPoint x="840" y="760" as="sourcePoint" />
            <mxPoint x="840" y="190" as="targetPoint" />
          </mxGeometry>
        </mxCell>
        <mxCell id="wUvt39ZvLq313ZMalpjT-1261" value="" style="html=1;points=[[0,0,0,0,5],[0,1,0,0,-5],[1,0,0,0,5],[1,1,0,0,-5]];perimeter=orthogonalPerimeter;outlineConnect=0;targetShapes=umlLifeline;portConstraint=eastwest;newEdgeStyle={&quot;curved&quot;:0,&quot;rounded&quot;:0};" vertex="1" parent="1">
          <mxGeometry x="835" y="280" width="10" height="260" as="geometry" />
        </mxCell>
        <mxCell id="wUvt39ZvLq313ZMalpjT-1262" value="&lt;div style=&quot;text-align: center;&quot;&gt;Return error&amp;nbsp;response&lt;/div&gt;" style="text;whiteSpace=wrap;html=1;" vertex="1" parent="1">
          <mxGeometry x="600" y="490" width="160" height="40" as="geometry" />
        </mxCell>
        <mxCell id="wUvt39ZvLq313ZMalpjT-1263" value="" style="html=1;points=[[0,0,0,0,5],[0,1,0,0,-5],[1,0,0,0,5],[1,1,0,0,-5]];perimeter=orthogonalPerimeter;outlineConnect=0;targetShapes=umlLifeline;portConstraint=eastwest;newEdgeStyle={&quot;curved&quot;:0,&quot;rounded&quot;:0};" vertex="1" parent="1">
          <mxGeometry x="505" y="510" width="10" height="230" as="geometry" />
        </mxCell>
      </root>
    </mxGraphModel>
  </diagram>
</mxfile>
